# Blender 4.2.3 LTS
# www.blender.org
mtllib sopa.mtl
o Cylinder
v 0.000000 -1.000000 -0.095526
v 0.000000 1.000000 -0.246913
v 0.018636 -1.000000 -0.093691
v 0.048170 1.000000 -0.242169
v 0.036556 -1.000000 -0.088255
v 0.094490 1.000000 -0.228118
v 0.053072 -1.000000 -0.079427
v 0.137178 1.000000 -0.205301
v 0.067547 -1.000000 -0.067547
v 0.174594 1.000000 -0.174594
v 0.079427 -1.000000 -0.053072
v 0.205301 1.000000 -0.137178
v 0.088255 -1.000000 -0.036556
v 0.228118 1.000000 -0.094490
v 0.093691 -1.000000 -0.018636
v 0.242169 1.000000 -0.048170
v 0.095526 -1.000000 0.000000
v 0.246913 1.000000 -0.000000
v 0.093691 -1.000000 0.018636
v 0.242169 1.000000 0.048170
v 0.088255 -1.000000 0.036556
v 0.228118 1.000000 0.094490
v 0.079427 -1.000000 0.053072
v 0.205301 1.000000 0.137178
v 0.067547 -1.000000 0.067547
v 0.174594 1.000000 0.174594
v 0.053072 -1.000000 0.079427
v 0.137178 1.000000 0.205301
v 0.036556 -1.000000 0.088255
v 0.094490 1.000000 0.228118
v 0.018636 -1.000000 0.093691
v 0.048170 1.000000 0.242169
v 0.000000 -1.000000 0.095526
v 0.000000 1.000000 0.246913
v -0.018636 -1.000000 0.093691
v -0.048170 1.000000 0.242169
v -0.036556 -1.000000 0.088255
v -0.094490 1.000000 0.228118
v -0.053072 -1.000000 0.079427
v -0.137178 1.000000 0.205301
v -0.067547 -1.000000 0.067547
v -0.174594 1.000000 0.174594
v -0.079427 -1.000000 0.053072
v -0.205301 1.000000 0.137178
v -0.088255 -1.000000 0.036556
v -0.228118 1.000000 0.094490
v -0.093691 -1.000000 0.018636
v -0.242169 1.000000 0.048170
v -0.095526 -1.000000 0.000000
v -0.246913 1.000000 -0.000000
v -0.093691 -1.000000 -0.018636
v -0.242169 1.000000 -0.048170
v -0.088255 -1.000000 -0.036556
v -0.228118 1.000000 -0.094490
v -0.079427 -1.000000 -0.053072
v -0.205301 1.000000 -0.137178
v -0.067547 -1.000000 -0.067547
v -0.174594 1.000000 -0.174594
v -0.053072 -1.000000 -0.079427
v -0.137178 1.000000 -0.205301
v -0.036556 -1.000000 -0.088255
v -0.094490 1.000000 -0.228118
v -0.018636 -1.000000 -0.093691
v -0.048170 1.000000 -0.242169
v 0.000000 0.000000 -0.126192
v 0.024619 0.000000 -0.123767
v 0.048291 0.000000 -0.116586
v 0.070108 0.000000 -0.104924
v 0.089231 0.000000 -0.089231
v 0.104924 0.000000 -0.070108
v 0.116586 0.000000 -0.048291
v 0.123767 0.000000 -0.024619
v 0.126192 0.000000 0.000000
v 0.123767 0.000000 0.024619
v 0.116586 0.000000 0.048291
v 0.104924 0.000000 0.070108
v 0.089231 0.000000 0.089231
v 0.070108 0.000000 0.104924
v 0.048291 0.000000 0.116586
v 0.024619 0.000000 0.123767
v 0.000000 0.000000 0.126192
v -0.024619 0.000000 0.123767
v -0.048291 0.000000 0.116586
v -0.070108 0.000000 0.104924
v -0.089231 0.000000 0.089231
v -0.104924 0.000000 0.070108
v -0.116586 0.000000 0.048291
v -0.123767 0.000000 0.024619
v -0.126192 0.000000 0.000000
v -0.123767 0.000000 -0.024619
v -0.116586 0.000000 -0.048291
v -0.104924 0.000000 -0.070108
v -0.089231 0.000000 -0.089231
v -0.070108 0.000000 -0.104924
v -0.048291 0.000000 -0.116586
v -0.024619 0.000000 -0.123767
v 0.026020 -0.500000 -0.130810
v 0.051040 -0.500000 -0.123221
v 0.074098 -0.500000 -0.110896
v 0.094309 -0.500000 -0.094309
v 0.110896 -0.500000 -0.074098
v 0.123221 -0.500000 -0.051040
v 0.130810 -0.500000 -0.026020
v 0.133373 -0.500000 0.000000
v 0.130810 -0.500000 0.026020
v 0.123221 -0.500000 0.051040
v 0.110896 -0.500000 0.074098
v 0.094309 -0.500000 0.094309
v 0.074098 -0.500000 0.110896
v 0.051040 -0.500000 0.123221
v 0.026020 -0.500000 0.130810
v 0.000000 -0.500000 0.133373
v -0.026020 -0.500000 0.130810
v -0.051040 -0.500000 0.123221
v -0.074098 -0.500000 0.110896
v -0.094309 -0.500000 0.094309
v -0.110896 -0.500000 0.074098
v -0.123221 -0.500000 0.051040
v -0.130810 -0.500000 0.026020
v -0.133373 -0.500000 0.000000
v -0.130810 -0.500000 -0.026020
v -0.123221 -0.500000 -0.051040
v -0.110896 -0.500000 -0.074098
v -0.094309 -0.500000 -0.094309
v -0.074098 -0.500000 -0.110896
v -0.051040 -0.500000 -0.123221
v -0.026020 -0.500000 -0.130810
v 0.000000 -0.500000 -0.133373
v 0.000000 0.697813 -0.238341
v 0.046498 0.697813 -0.233761
v 0.091209 0.697813 -0.220198
v 0.132415 0.697813 -0.198173
v 0.168532 0.697813 -0.168532
v 0.198173 0.697813 -0.132415
v 0.220198 0.697813 -0.091209
v 0.233761 0.697813 -0.046498
v 0.238341 0.697813 -0.000000
v 0.233761 0.697813 0.046498
v 0.220198 0.697813 0.091209
v 0.198173 0.697813 0.132415
v 0.168532 0.697813 0.168532
v 0.132415 0.697813 0.198173
v 0.091209 0.697813 0.220198
v 0.046498 0.697813 0.233761
v 0.000000 0.697813 0.238341
v -0.046498 0.697813 0.233761
v -0.091209 0.697813 0.220198
v -0.132415 0.697813 0.198173
v -0.168532 0.697813 0.168532
v -0.198173 0.697813 0.132415
v -0.220198 0.697813 0.091209
v -0.233761 0.697813 0.046498
v -0.238341 0.697813 -0.000000
v -0.233761 0.697813 -0.046498
v -0.220198 0.697813 -0.091209
v -0.198173 0.697813 -0.132415
v -0.168532 0.697813 -0.168532
v -0.132415 0.697813 -0.198173
v -0.091209 0.697813 -0.220198
v -0.046498 0.697813 -0.233761
v 0.048170 1.249951 -0.242169
v 0.000000 1.249951 -0.246913
v 0.094490 1.249951 -0.228118
v 0.137178 1.249951 -0.205301
v 0.174594 1.249951 -0.174594
v 0.205301 1.249951 -0.137178
v 0.228118 1.249951 -0.094490
v 0.242169 1.249951 -0.048170
v 0.246913 1.249951 -0.000000
v 0.242169 1.249951 0.048170
v 0.228118 1.249951 0.094490
v 0.205301 1.249951 0.137178
v 0.174594 1.249951 0.174594
v 0.137178 1.249951 0.205301
v 0.094490 1.249951 0.228118
v 0.048170 1.249951 0.242169
v 0.000000 1.249951 0.246913
v -0.048170 1.249951 0.242169
v -0.094490 1.249951 0.228118
v -0.137178 1.249951 0.205301
v -0.174594 1.249951 0.174594
v -0.205301 1.249951 0.137178
v -0.228118 1.249951 0.094490
v -0.242169 1.249951 0.048170
v -0.246913 1.249951 -0.000000
v -0.242169 1.249951 -0.048170
v -0.228118 1.249951 -0.094490
v -0.205301 1.249951 -0.137178
v -0.174594 1.249951 -0.174594
v -0.137178 1.249951 -0.205301
v -0.094490 1.249951 -0.228118
v -0.048170 1.249951 -0.242169
v 0.003974 1.113236 0.157944
v 0.151924 1.113236 0.075461
v 0.143261 1.113236 -0.069476
v 0.035614 1.113236 -0.169463
v -0.101826 1.113236 -0.128036
v -0.189615 1.113236 -0.003380
v -0.125585 1.113236 0.121595
v 0.003974 1.531241 0.157944
v 0.151924 1.531241 0.075461
v 0.143261 1.531241 -0.069476
v 0.035614 1.531241 -0.169463
v -0.101826 1.531241 -0.128036
v -0.189615 1.531241 -0.003380
v -0.125585 1.531241 0.121595
vn 0.0980 -0.0282 -0.9948
vn 0.2902 -0.0282 -0.9566
vn 0.4712 -0.0282 -0.8816
vn 0.6341 -0.0282 -0.7727
vn 0.7727 -0.0282 -0.6341
vn 0.8816 -0.0282 -0.4712
vn 0.9566 -0.0282 -0.2902
vn 0.9948 -0.0282 -0.0980
vn 0.9948 -0.0282 0.0980
vn 0.9566 -0.0282 0.2902
vn 0.8816 -0.0282 0.4712
vn 0.7727 -0.0282 0.6341
vn 0.6341 -0.0282 0.7727
vn 0.4712 -0.0282 0.8816
vn 0.2902 -0.0282 0.9566
vn 0.0980 -0.0282 0.9948
vn -0.0980 -0.0282 0.9948
vn -0.2902 -0.0282 0.9566
vn -0.4712 -0.0282 0.8816
vn -0.6341 -0.0282 0.7727
vn -0.7727 -0.0282 0.6341
vn -0.8816 -0.0282 0.4712
vn -0.9566 -0.0282 0.2902
vn -0.9948 -0.0282 0.0980
vn -0.9948 -0.0282 -0.0980
vn -0.9566 -0.0282 -0.2902
vn -0.8816 -0.0282 -0.4712
vn -0.7727 -0.0282 -0.6341
vn -0.6341 -0.0282 -0.7727
vn -0.4712 -0.0282 -0.8816
vn 0.4714 -0.0000 -0.8819
vn -0.2902 -0.0282 -0.9566
vn -0.0980 -0.0282 -0.9948
vn -0.0000 -1.0000 -0.0000
vn -0.0980 0.0143 -0.9951
vn -0.2903 0.0143 -0.9568
vn -0.4713 0.0143 -0.8818
vn -0.6343 0.0143 -0.7729
vn -0.7729 0.0143 -0.6343
vn -0.8818 0.0143 -0.4713
vn -0.9568 0.0143 -0.2903
vn -0.9951 0.0143 -0.0980
vn -0.9951 0.0143 0.0980
vn -0.9568 0.0143 0.2903
vn -0.8818 0.0143 0.4713
vn -0.7729 0.0143 0.6343
vn -0.6343 0.0143 0.7729
vn -0.4713 0.0143 0.8818
vn -0.2903 0.0143 0.9568
vn -0.0980 0.0143 0.9951
vn 0.0980 0.0143 0.9951
vn 0.2903 0.0143 0.9568
vn 0.4713 0.0143 0.8818
vn 0.6343 0.0143 0.7729
vn 0.7729 0.0143 0.6343
vn 0.8818 0.0143 0.4713
vn 0.9568 0.0143 0.2903
vn 0.9951 0.0143 0.0980
vn 0.9951 0.0143 -0.0980
vn 0.9568 0.0143 -0.2903
vn 0.8818 0.0143 -0.4713
vn 0.7729 0.0143 -0.6343
vn 0.6343 0.0143 -0.7729
vn 0.4713 0.0143 -0.8818
vn 0.2903 0.0143 -0.9568
vn 0.0980 0.0143 -0.9951
vn 0.0977 -0.0751 -0.9924
vn 0.2895 -0.0751 -0.9542
vn 0.4701 -0.0751 -0.8794
vn 0.6326 -0.0751 -0.7708
vn 0.7708 -0.0751 -0.6326
vn 0.8794 -0.0751 -0.4701
vn 0.9542 -0.0751 -0.2895
vn 0.9924 -0.0751 -0.0977
vn 0.9924 -0.0751 0.0977
vn 0.9542 -0.0751 0.2895
vn 0.8794 -0.0751 0.4701
vn 0.7708 -0.0751 0.6326
vn 0.6326 -0.0751 0.7708
vn 0.4701 -0.0751 0.8794
vn 0.2895 -0.0751 0.9542
vn 0.0977 -0.0751 0.9924
vn -0.0977 -0.0751 0.9924
vn -0.2895 -0.0751 0.9542
vn -0.4701 -0.0751 0.8794
vn -0.6326 -0.0751 0.7708
vn -0.7708 -0.0751 0.6326
vn -0.8794 -0.0751 0.4701
vn -0.9542 -0.0751 0.2895
vn -0.9924 -0.0751 0.0977
vn -0.9924 -0.0751 -0.0977
vn -0.9542 -0.0751 -0.2895
vn -0.8794 -0.0751 -0.4701
vn -0.7708 -0.0751 -0.6326
vn -0.6326 -0.0751 -0.7708
vn -0.4701 -0.0751 -0.8794
vn -0.2895 -0.0751 -0.9542
vn -0.0977 -0.0751 -0.9924
vn -0.0968 -0.1579 -0.9827
vn -0.2866 -0.1579 -0.9449
vn -0.4655 -0.1579 -0.8709
vn -0.6264 -0.1579 -0.7633
vn -0.7633 -0.1579 -0.6264
vn -0.8709 -0.1579 -0.4655
vn -0.9449 -0.1579 -0.2866
vn -0.9827 -0.1579 -0.0968
vn -0.9827 -0.1579 0.0968
vn -0.9449 -0.1579 0.2866
vn -0.8709 -0.1579 0.4655
vn -0.7633 -0.1579 0.6264
vn -0.6264 -0.1579 0.7633
vn -0.4655 -0.1579 0.8709
vn -0.2866 -0.1579 0.9449
vn -0.0968 -0.1579 0.9827
vn 0.0968 -0.1579 0.9827
vn 0.2866 -0.1579 0.9449
vn 0.4655 -0.1579 0.8709
vn 0.6264 -0.1579 0.7633
vn 0.7633 -0.1579 0.6264
vn 0.8709 -0.1579 0.4655
vn 0.9449 -0.1579 0.2866
vn 0.9827 -0.1579 0.0968
vn 0.9827 -0.1579 -0.0968
vn 0.9449 -0.1579 -0.2866
vn 0.8709 -0.1579 -0.4655
vn 0.7633 -0.1579 -0.6264
vn 0.6264 -0.1579 -0.7633
vn 0.4655 -0.1579 -0.8709
vn 0.2866 -0.1579 -0.9449
vn 0.0968 -0.1579 -0.9827
vn -0.1387 0.7443 0.6533
vn 0.7730 -0.0000 0.6344
vn -0.7730 -0.0000 0.6344
vn -0.4714 -0.0000 -0.8819
vn 0.9952 -0.0000 -0.0980
vn -0.0980 -0.0000 0.9952
vn -0.9569 -0.0000 -0.2903
vn 0.6344 -0.0000 -0.7730
vn 0.6344 -0.0000 0.7730
vn -0.8819 -0.0000 0.4714
vn -0.2903 -0.0000 -0.9569
vn 0.9952 -0.0000 0.0980
vn -0.2903 -0.0000 0.9569
vn -0.8819 -0.0000 -0.4714
vn 0.7730 -0.0000 -0.6344
vn 0.4714 -0.0000 0.8819
vn -0.9569 -0.0000 0.2903
vn 0.0980 -0.0000 -0.9952
vn -0.0980 -0.0000 -0.9952
vn 0.9569 -0.0000 0.2903
vn -0.4714 -0.0000 0.8819
vn -0.7730 -0.0000 -0.6344
vn 0.8819 -0.0000 -0.4714
vn 0.2903 -0.0000 0.9569
vn -0.9952 -0.0000 0.0980
vn 0.2903 -0.0000 -0.9569
vn 0.8819 -0.0000 0.4714
vn -0.6344 -0.0000 0.7730
vn -0.6344 -0.0000 -0.7730
vn 0.9569 -0.0000 -0.2903
vn 0.0980 -0.0000 0.9952
vn -0.9952 -0.0000 -0.0980
vn -0.0000 1.0000 -0.0000
vn 0.1582 0.6476 -0.7454
vn -0.8176 -0.0000 -0.5758
vn 0.6806 -0.0000 -0.7327
vn 0.4869 -0.0000 0.8734
vn -0.8900 -0.0000 0.4560
vn -0.2886 -0.0000 -0.9575
vn 0.9982 -0.0000 -0.0597
vn -0.2701 -0.0000 0.9628
vt 1.000000 0.875000
vt 1.000000 1.000000
vt 0.968750 1.000000
vt 0.968750 0.875000
vt 0.937500 1.000000
vt 0.937500 0.875000
vt 0.906250 1.000000
vt 0.906250 0.875000
vt 0.875000 1.000000
vt 0.875000 0.875000
vt 0.843750 1.000000
vt 0.843750 0.875000
vt 0.812500 1.000000
vt 0.812500 0.875000
vt 0.781250 1.000000
vt 0.781250 0.875000
vt 0.750000 1.000000
vt 0.750000 0.875000
vt 0.718750 1.000000
vt 0.718750 0.875000
vt 0.687500 1.000000
vt 0.687500 0.875000
vt 0.656250 1.000000
vt 0.656250 0.875000
vt 0.625000 1.000000
vt 0.625000 0.875000
vt 0.593750 1.000000
vt 0.593750 0.875000
vt 0.562500 1.000000
vt 0.562500 0.875000
vt 0.531250 1.000000
vt 0.531250 0.875000
vt 0.500000 1.000000
vt 0.500000 0.875000
vt 0.468750 1.000000
vt 0.468750 0.875000
vt 0.437500 1.000000
vt 0.437500 0.875000
vt 0.406250 1.000000
vt 0.406250 0.875000
vt 0.375000 1.000000
vt 0.375000 0.875000
vt 0.343750 1.000000
vt 0.343750 0.875000
vt 0.312500 1.000000
vt 0.312500 0.875000
vt 0.281250 1.000000
vt 0.281250 0.875000
vt 0.250000 1.000000
vt 0.250000 0.875000
vt 0.218750 1.000000
vt 0.218750 0.875000
vt 0.187500 1.000000
vt 0.187500 0.875000
vt 0.156250 1.000000
vt 0.156250 0.875000
vt 0.125000 1.000000
vt 0.125000 0.875000
vt 0.093750 1.000000
vt 0.093750 0.875000
vt 0.062500 1.000000
vt 0.062500 0.875000
vt 0.031250 1.000000
vt 0.031250 0.875000
vt 0.000000 1.000000
vt 0.000000 0.875000
vt 0.750000 0.490000
vt 0.796822 0.485388
vt 0.841844 0.471731
vt 0.883337 0.449553
vt 0.919706 0.419706
vt 0.949553 0.383337
vt 0.971731 0.341844
vt 0.985388 0.296822
vt 0.990000 0.250000
vt 0.985388 0.203178
vt 0.971731 0.158156
vt 0.949553 0.116663
vt 0.919706 0.080294
vt 0.883337 0.050447
vt 0.841844 0.028269
vt 0.796822 0.014612
vt 0.750000 0.010000
vt 0.703178 0.014612
vt 0.658156 0.028269
vt 0.616663 0.050447
vt 0.580294 0.080294
vt 0.550447 0.116663
vt 0.528269 0.158156
vt 0.514612 0.203178
vt 0.510000 0.250000
vt 0.514612 0.296822
vt 0.528269 0.341844
vt 0.550447 0.383337
vt 0.580294 0.419706
vt 0.616663 0.449553
vt 0.658156 0.471731
vt 0.703178 0.485388
vt 0.031250 0.625000
vt 0.031250 0.750000
vt 0.000000 0.750000
vt 0.000000 0.625000
vt 0.062500 0.625000
vt 0.062500 0.750000
vt 0.093750 0.625000
vt 0.093750 0.750000
vt 0.125000 0.625000
vt 0.125000 0.750000
vt 0.156250 0.625000
vt 0.156250 0.750000
vt 0.187500 0.625000
vt 0.187500 0.750000
vt 0.218750 0.625000
vt 0.218750 0.750000
vt 0.250000 0.625000
vt 0.250000 0.750000
vt 0.281250 0.625000
vt 0.281250 0.750000
vt 0.312500 0.625000
vt 0.312500 0.750000
vt 0.343750 0.625000
vt 0.343750 0.750000
vt 0.375000 0.625000
vt 0.375000 0.750000
vt 0.406250 0.625000
vt 0.406250 0.750000
vt 0.437500 0.625000
vt 0.437500 0.750000
vt 0.468750 0.625000
vt 0.468750 0.750000
vt 0.500000 0.625000
vt 0.500000 0.750000
vt 0.531250 0.625000
vt 0.531250 0.750000
vt 0.562500 0.625000
vt 0.562500 0.750000
vt 0.593750 0.625000
vt 0.593750 0.750000
vt 0.625000 0.625000
vt 0.625000 0.750000
vt 0.656250 0.625000
vt 0.656250 0.750000
vt 0.687500 0.625000
vt 0.687500 0.750000
vt 0.718750 0.625000
vt 0.718750 0.750000
vt 0.750000 0.625000
vt 0.750000 0.750000
vt 0.781250 0.625000
vt 0.781250 0.750000
vt 0.812500 0.625000
vt 0.812500 0.750000
vt 0.843750 0.625000
vt 0.843750 0.750000
vt 0.875000 0.625000
vt 0.875000 0.750000
vt 0.906250 0.625000
vt 0.906250 0.750000
vt 0.937500 0.625000
vt 0.937500 0.750000
vt 0.968750 0.625000
vt 0.968750 0.750000
vt 1.000000 0.625000
vt 1.000000 0.750000
vt 1.000000 0.500000
vt 0.968750 0.500000
vt 0.937500 0.500000
vt 0.906250 0.500000
vt 0.875000 0.500000
vt 0.843750 0.500000
vt 0.812500 0.500000
vt 0.781250 0.500000
vt 0.750000 0.500000
vt 0.718750 0.500000
vt 0.687500 0.500000
vt 0.656250 0.500000
vt 0.625000 0.500000
vt 0.593750 0.500000
vt 0.562500 0.500000
vt 0.531250 0.500000
vt 0.500000 0.500000
vt 0.468750 0.500000
vt 0.437500 0.500000
vt 0.406250 0.500000
vt 0.375000 0.500000
vt 0.343750 0.500000
vt 0.312500 0.500000
vt 0.281250 0.500000
vt 0.250000 0.500000
vt 0.218750 0.500000
vt 0.187500 0.500000
vt 0.156250 0.500000
vt 0.125000 0.500000
vt 0.093750 0.500000
vt 0.062500 0.500000
vt 0.031250 0.500000
vt 0.000000 0.500000
vt 0.296822 0.485388
vt 0.250000 0.490000
vt 0.203178 0.485388
vt 0.158156 0.471731
vt 0.116663 0.449553
vt 0.080294 0.419706
vt 0.050447 0.383337
vt 0.028269 0.341844
vt 0.014612 0.296822
vt 0.010000 0.250000
vt 0.065694 0.253285
vt 0.151025 0.374451
vt 0.284617 0.414719
vt 0.389250 0.317531
vt 0.397670 0.176652
vt 0.471731 0.158156
vt 0.485388 0.203178
vt 0.490000 0.250000
vt 0.485388 0.296822
vt 0.471731 0.341844
vt 0.449553 0.383337
vt 0.419706 0.419706
vt 0.383337 0.449553
vt 0.341844 0.471731
vt 0.127931 0.131809
vt 0.253862 0.096478
vt 0.014612 0.203178
vt 0.028269 0.158156
vt 0.050447 0.116663
vt 0.080294 0.080294
vt 0.116663 0.050447
vt 0.158156 0.028269
vt 0.203178 0.014612
vt 0.250000 0.010000
vt 0.296822 0.014612
vt 0.341844 0.028269
vt 0.383337 0.050447
vt 0.419706 0.080294
vt 0.449553 0.116663
s 0
f 129/1/1 2/2/1 4/3/1 130/4/1
f 130/4/2 4/3/2 6/5/2 131/6/2
f 131/6/3 6/5/3 8/7/3 132/8/3
f 132/8/4 8/7/4 10/9/4 133/10/4
f 133/10/5 10/9/5 12/11/5 134/12/5
f 134/12/6 12/11/6 14/13/6 135/14/6
f 135/14/7 14/13/7 16/15/7 136/16/7
f 136/16/8 16/15/8 18/17/8 137/18/8
f 137/18/9 18/17/9 20/19/9 138/20/9
f 138/20/10 20/19/10 22/21/10 139/22/10
f 139/22/11 22/21/11 24/23/11 140/24/11
f 140/24/12 24/23/12 26/25/12 141/26/12
f 141/26/13 26/25/13 28/27/13 142/28/13
f 142/28/14 28/27/14 30/29/14 143/30/14
f 143/30/15 30/29/15 32/31/15 144/32/15
f 144/32/16 32/31/16 34/33/16 145/34/16
f 145/34/17 34/33/17 36/35/17 146/36/17
f 146/36/18 36/35/18 38/37/18 147/38/18
f 147/38/19 38/37/19 40/39/19 148/40/19
f 148/40/20 40/39/20 42/41/20 149/42/20
f 149/42/21 42/41/21 44/43/21 150/44/21
f 150/44/22 44/43/22 46/45/22 151/46/22
f 151/46/23 46/45/23 48/47/23 152/48/23
f 152/48/24 48/47/24 50/49/24 153/50/24
f 153/50/25 50/49/25 52/51/25 154/52/25
f 154/52/26 52/51/26 54/53/26 155/54/26
f 155/54/27 54/53/27 56/55/27 156/56/27
f 156/56/28 56/55/28 58/57/28 157/58/28
f 157/58/29 58/57/29 60/59/29 158/60/29
f 158/60/30 60/59/30 62/61/30 159/62/30
f 8/7/31 6/5/31 163/5/31 164/7/31
f 159/62/32 62/61/32 64/63/32 160/64/32
f 160/64/33 64/63/33 2/65/33 129/66/33
f 1/67/34 3/68/34 5/69/34 7/70/34 9/71/34 11/72/34 13/73/34 15/74/34 17/75/34 19/76/34 21/77/34 23/78/34 25/79/34 27/80/34 29/81/34 31/82/34 33/83/34 35/84/34 37/85/34 39/86/34 41/87/34 43/88/34 45/89/34 47/90/34 49/91/34 51/92/34 53/93/34 55/94/34 57/95/34 59/96/34 61/97/34 63/98/34
f 127/99/35 96/100/35 65/101/35 128/102/35
f 126/103/36 95/104/36 96/100/36 127/99/36
f 125/105/37 94/106/37 95/104/37 126/103/37
f 124/107/38 93/108/38 94/106/38 125/105/38
f 123/109/39 92/110/39 93/108/39 124/107/39
f 122/111/40 91/112/40 92/110/40 123/109/40
f 121/113/41 90/114/41 91/112/41 122/111/41
f 120/115/42 89/116/42 90/114/42 121/113/42
f 119/117/43 88/118/43 89/116/43 120/115/43
f 118/119/44 87/120/44 88/118/44 119/117/44
f 117/121/45 86/122/45 87/120/45 118/119/45
f 116/123/46 85/124/46 86/122/46 117/121/46
f 115/125/47 84/126/47 85/124/47 116/123/47
f 114/127/48 83/128/48 84/126/48 115/125/48
f 113/129/49 82/130/49 83/128/49 114/127/49
f 112/131/50 81/132/50 82/130/50 113/129/50
f 111/133/51 80/134/51 81/132/51 112/131/51
f 110/135/52 79/136/52 80/134/52 111/133/52
f 109/137/53 78/138/53 79/136/53 110/135/53
f 108/139/54 77/140/54 78/138/54 109/137/54
f 107/141/55 76/142/55 77/140/55 108/139/55
f 106/143/56 75/144/56 76/142/56 107/141/56
f 105/145/57 74/146/57 75/144/57 106/143/57
f 104/147/58 73/148/58 74/146/58 105/145/58
f 103/149/59 72/150/59 73/148/59 104/147/59
f 102/151/60 71/152/60 72/150/60 103/149/60
f 101/153/61 70/154/61 71/152/61 102/151/61
f 100/155/62 69/156/62 70/154/62 101/153/62
f 99/157/63 68/158/63 69/156/63 100/155/63
f 98/159/64 67/160/64 68/158/64 99/157/64
f 97/161/65 66/162/65 67/160/65 98/159/65
f 128/163/66 65/164/66 66/162/66 97/161/66
f 1/165/67 128/163/67 97/161/67 3/166/67
f 3/166/68 97/161/68 98/159/68 5/167/68
f 5/167/69 98/159/69 99/157/69 7/168/69
f 7/168/70 99/157/70 100/155/70 9/169/70
f 9/169/71 100/155/71 101/153/71 11/170/71
f 11/170/72 101/153/72 102/151/72 13/171/72
f 13/171/73 102/151/73 103/149/73 15/172/73
f 15/172/74 103/149/74 104/147/74 17/173/74
f 17/173/75 104/147/75 105/145/75 19/174/75
f 19/174/76 105/145/76 106/143/76 21/175/76
f 21/175/77 106/143/77 107/141/77 23/176/77
f 23/176/78 107/141/78 108/139/78 25/177/78
f 25/177/79 108/139/79 109/137/79 27/178/79
f 27/178/80 109/137/80 110/135/80 29/179/80
f 29/179/81 110/135/81 111/133/81 31/180/81
f 31/180/82 111/133/82 112/131/82 33/181/82
f 33/181/83 112/131/83 113/129/83 35/182/83
f 35/182/84 113/129/84 114/127/84 37/183/84
f 37/183/85 114/127/85 115/125/85 39/184/85
f 39/184/86 115/125/86 116/123/86 41/185/86
f 41/185/87 116/123/87 117/121/87 43/186/87
f 43/186/88 117/121/88 118/119/88 45/187/88
f 45/187/89 118/119/89 119/117/89 47/188/89
f 47/188/90 119/117/90 120/115/90 49/189/90
f 49/189/91 120/115/91 121/113/91 51/190/91
f 51/190/92 121/113/92 122/111/92 53/191/92
f 53/191/93 122/111/93 123/109/93 55/192/93
f 55/192/94 123/109/94 124/107/94 57/193/94
f 57/193/95 124/107/95 125/105/95 59/194/95
f 59/194/96 125/105/96 126/103/96 61/195/96
f 61/195/97 126/103/97 127/99/97 63/196/97
f 63/196/98 127/99/98 128/102/98 1/197/98
f 96/100/99 160/64/99 129/66/99 65/101/99
f 95/104/100 159/62/100 160/64/100 96/100/100
f 94/106/101 158/60/101 159/62/101 95/104/101
f 93/108/102 157/58/102 158/60/102 94/106/102
f 92/110/103 156/56/103 157/58/103 93/108/103
f 91/112/104 155/54/104 156/56/104 92/110/104
f 90/114/105 154/52/105 155/54/105 91/112/105
f 89/116/106 153/50/106 154/52/106 90/114/106
f 88/118/107 152/48/107 153/50/107 89/116/107
f 87/120/108 151/46/108 152/48/108 88/118/108
f 86/122/109 150/44/109 151/46/109 87/120/109
f 85/124/110 149/42/110 150/44/110 86/122/110
f 84/126/111 148/40/111 149/42/111 85/124/111
f 83/128/112 147/38/112 148/40/112 84/126/112
f 82/130/113 146/36/113 147/38/113 83/128/113
f 81/132/114 145/34/114 146/36/114 82/130/114
f 80/134/115 144/32/115 145/34/115 81/132/115
f 79/136/116 143/30/116 144/32/116 80/134/116
f 78/138/117 142/28/117 143/30/117 79/136/117
f 77/140/118 141/26/118 142/28/118 78/138/118
f 76/142/119 140/24/119 141/26/119 77/140/119
f 75/144/120 139/22/120 140/24/120 76/142/120
f 74/146/121 138/20/121 139/22/121 75/144/121
f 73/148/122 137/18/122 138/20/122 74/146/122
f 72/150/123 136/16/123 137/18/123 73/148/123
f 71/152/124 135/14/124 136/16/124 72/150/124
f 70/154/125 134/12/125 135/14/125 71/152/125
f 69/156/126 133/10/126 134/12/126 70/154/126
f 68/158/127 132/8/127 133/10/127 69/156/127
f 67/160/128 131/6/128 132/8/128 68/158/128
f 66/162/129 130/4/129 131/6/129 67/160/129
f 65/164/130 129/1/130 130/4/130 66/162/130
f 161/198/131 162/199/131 192/200/131 191/201/131 190/202/131 189/203/131 188/204/131 187/205/131 186/206/131 185/207/131 198/208/131 197/209/131 196/210/131 195/211/131 194/212/131 171/213/131 170/214/131 169/215/131 168/216/131 167/217/131 166/218/131 165/219/131 164/220/131 163/221/131
f 26/25/132 24/23/132 172/23/132 173/25/132
f 44/43/133 42/41/133 181/41/133 182/43/133
f 62/61/134 60/59/134 190/59/134 191/61/134
f 18/17/135 16/15/135 168/15/135 169/17/135
f 36/35/136 34/33/136 177/33/136 178/35/136
f 54/53/137 52/51/137 186/51/137 187/53/137
f 10/9/138 8/7/138 164/7/138 165/9/138
f 28/27/139 26/25/139 173/25/139 174/27/139
f 46/45/140 44/43/140 182/43/140 183/45/140
f 64/63/141 62/61/141 191/61/141 192/63/141
f 20/19/142 18/17/142 169/17/142 170/19/142
f 38/37/143 36/35/143 178/35/143 179/37/143
f 56/55/144 54/53/144 187/53/144 188/55/144
f 12/11/145 10/9/145 165/9/145 166/11/145
f 30/29/146 28/27/146 174/27/146 175/29/146
f 48/47/147 46/45/147 183/45/147 184/47/147
f 4/3/148 2/2/148 162/2/148 161/3/148
f 2/65/149 64/63/149 192/63/149 162/65/149
f 22/21/150 20/19/150 170/19/150 171/21/150
f 40/39/151 38/37/151 179/37/151 180/39/151
f 58/57/152 56/55/152 188/55/152 189/57/152
f 14/13/153 12/11/153 166/11/153 167/13/153
f 32/31/154 30/29/154 175/29/154 176/31/154
f 50/49/155 48/47/155 184/47/155 185/49/155
f 6/5/156 4/3/156 161/3/156 163/5/156
f 24/23/157 22/21/157 171/21/157 172/23/157
f 42/41/158 40/39/158 180/39/158 181/41/158
f 60/59/159 58/57/159 189/57/159 190/59/159
f 16/15/160 14/13/160 167/13/160 168/15/160
f 34/33/161 32/31/161 176/31/161 177/33/161
f 52/51/162 50/49/162 185/49/162 186/51/162
f 206/222/163 200/223/163 201/212/163 202/211/163 203/210/163 204/209/163 205/208/163
f 171/213/164 194/212/164 193/223/164 199/222/164 198/208/164 185/207/164 184/224/164 183/225/164 182/226/164 181/227/164 180/228/164 179/229/164 178/230/164 177/231/164 176/232/164 175/233/164 174/234/164 173/235/164 172/236/164
f 197/209/165 198/208/165 205/208/165 204/209/165
f 195/211/166 196/210/166 203/210/166 202/211/166
f 193/223/167 194/212/167 201/212/167 200/223/167
f 198/208/168 199/222/168 206/222/168 205/208/168
f 196/210/169 197/209/169 204/209/169 203/210/169
f 194/212/170 195/211/170 202/211/170 201/212/170
f 199/222/171 193/223/171 200/223/171 206/222/171
