# Blender 4.1.1
# www.blender.org
mtllib terrain.mtl
o Grid
v -1.000000 0.038713 1.000000
v -0.800000 0.015279 1.000000
v -0.600000 -0.058789 1.000000
v -0.400000 -0.144557 1.000000
v -0.200000 -0.217242 1.000000
v 0.000000 -0.283462 1.000000
v 0.200000 -0.360636 1.000000
v 0.400000 -0.427991 1.000000
v 0.600000 -0.474135 1.000000
v 0.800000 -0.490916 1.000000
v 1.000000 -0.474135 1.000000
v -1.000000 0.082340 0.800000
v -0.800000 0.034902 0.800000
v -0.600000 -0.065996 0.800000
v -0.400000 -0.170601 0.800000
v -0.200000 -0.243609 0.800000
v 0.000000 -0.299832 0.800000
v 0.200000 -0.372954 0.800000
v 0.400000 -0.442792 0.800000
v 0.600000 -0.490916 0.800000
v 0.800000 -0.508910 0.800000
v 1.000000 -0.490916 0.800000
v -1.000000 0.135019 0.600000
v -0.800000 0.081993 0.600000
v -0.600000 -0.030002 0.600000
v -0.400000 -0.149412 0.600000
v -0.200000 -0.226599 0.600000
v 0.000000 -0.280744 0.600000
v 0.200000 -0.351976 0.600000
v 0.400000 -0.427991 0.600000
v 0.600000 -0.474135 0.600000
v 0.800000 -0.490916 0.600000
v 1.000000 -0.474135 0.600000
v -1.000000 0.195092 0.400000
v -0.800000 0.158352 0.400000
v -0.600000 0.058938 0.400000
v -0.400000 -0.059006 0.400000
v -0.200000 -0.147695 0.400000
v 0.000000 -0.211355 0.400000
v 0.200000 -0.296568 0.400000
v 0.400000 -0.382362 0.400000
v 0.600000 -0.427991 0.400000
v 0.800000 -0.442792 0.400000
v 1.000000 -0.427991 0.400000
v -1.000000 0.250177 0.200000
v -0.800000 0.237387 0.200000
v -0.600000 0.168141 0.200000
v -0.400000 0.081694 0.200000
v -0.200000 0.020167 0.200000
v 0.000000 -0.052640 0.200000
v 0.200000 -0.170517 0.200000
v 0.400000 -0.295467 0.200000
v 0.600000 -0.360433 0.200000
v 0.800000 -0.373323 0.200000
v 1.000000 -0.358989 0.200000
v -1.000000 0.296728 0.000000
v -0.800000 0.286810 0.000000
v -0.600000 0.250308 0.000000
v -0.400000 0.223185 0.000000
v -0.200000 0.193671 0.000000
v 0.000000 0.119854 0.000000
v 0.200000 -0.015855 0.000000
v 0.400000 -0.171244 0.000000
v 0.600000 -0.263674 0.000000
v 0.800000 -0.247583 0.000000
v 1.000000 -0.217999 0.000000
v -1.000000 0.328978 -0.200000
v -0.800000 0.317732 -0.200000
v -0.600000 0.293313 -0.200000
v -0.400000 0.292754 -0.200000
v -0.200000 0.285945 -0.200000
v 0.000000 0.230483 -0.200000
v 0.200000 0.096582 -0.200000
v 0.400000 -0.063051 -0.200000
v 0.600000 -0.128133 -0.200000
v 0.800000 -0.082790 -0.200000
v 1.000000 -0.040489 -0.200000
v -1.000000 0.341036 -0.400000
v -0.800000 0.328978 -0.400000
v -0.600000 0.299703 -0.400000
v -0.400000 0.299512 -0.400000
v -0.200000 0.294102 -0.400000
v 0.000000 0.242985 -0.400000
v 0.200000 0.129234 -0.400000
v 0.400000 -0.003136 -0.400000
v 0.600000 -0.030778 -0.400000
v 0.800000 0.037543 -0.400000
v 1.000000 0.086140 -0.400000
v -1.000000 0.328978 -0.600000
v -0.800000 0.317733 -0.600000
v -0.600000 0.286810 -0.600000
v -0.400000 0.256560 -0.600000
v -0.200000 0.238925 -0.600000
v 0.000000 0.191282 -0.600000
v 0.200000 0.104794 -0.600000
v 0.400000 0.010077 -0.600000
v 0.600000 0.007896 -0.600000
v 0.800000 0.067862 -0.600000
v 1.000000 0.104685 -0.600000
v -1.000000 0.296728 -0.800000
v -0.800000 0.286810 -0.800000
v -0.600000 0.258925 -0.800000
v -0.400000 0.217520 -0.800000
v -0.200000 0.170997 -0.800000
v 0.000000 0.123901 -0.800000
v 0.200000 0.068832 -0.800000
v 0.400000 0.021657 -0.800000
v 0.600000 0.006431 -0.800000
v 0.800000 0.038056 -0.800000
v 1.000000 0.058644 -0.800000
v -1.000000 0.250176 -1.000000
v -0.800000 0.241674 -1.000000
v -0.600000 0.217520 -1.000000
v -0.400000 0.181269 -1.000000
v -0.200000 0.137719 -1.000000
v 0.000000 0.092252 -1.000000
v 0.200000 0.050506 -1.000000
v 0.400000 0.018235 -1.000000
v 0.600000 0.001254 -1.000000
v 0.800000 0.001979 -1.000000
v 1.000000 0.006245 -1.000000
vn 0.1724 0.9729 0.1538
vn 0.4006 0.9158 0.0284
vn 0.4285 0.9004 -0.0749
vn 0.3397 0.9326 -0.1222
vn 0.2912 0.9513 -0.1016
vn 0.3509 0.9340 -0.0670
vn 0.3238 0.9440 -0.0640
vn 0.2287 0.9705 -0.0766
vn 0.0863 0.9925 -0.0863
vn -0.0863 0.9925 -0.0863
vn 0.2368 0.9427 0.2351
vn 0.4621 0.8683 0.1804
vn 0.4849 0.8658 0.1238
vn 0.3501 0.9325 0.0890
vn 0.2650 0.9604 0.0867
vn 0.3380 0.9365 0.0938
vn 0.3414 0.9362 0.0837
vn 0.2287 0.9705 0.0766
vn 0.0863 0.9925 0.0863
vn -0.0863 0.9925 0.0863
vn 0.2078 0.9258 0.3158
vn 0.4389 0.8304 0.3432
vn 0.4761 0.8024 0.3598
vn 0.3568 0.8603 0.3641
vn 0.2662 0.9038 0.3351
vn 0.3498 0.8943 0.2790
vn 0.3651 0.9026 0.2280
vn 0.2182 0.9512 0.2182
vn 0.0766 0.9705 0.2287
vn -0.0766 0.9705 0.2287
vn 0.1166 0.9417 0.3157
vn 0.3565 0.8454 0.3978
vn 0.3976 0.7782 0.4862
vn 0.2850 0.7589 0.5855
vn 0.2555 0.7489 0.6114
vn 0.3822 0.7528 0.5359
vn 0.4217 0.8004 0.4261
vn 0.2498 0.9033 0.3488
vn 0.0654 0.9440 0.3234
vn -0.0687 0.9427 0.3264
vn 0.0551 0.9709 0.2330
vn 0.2436 0.9213 0.3031
vn 0.2405 0.8472 0.4737
vn 0.1760 0.7734 0.6090
vn 0.2672 0.7288 0.6304
vn 0.4405 0.6949 0.5684
vn 0.4984 0.7112 0.4958
vn 0.3257 0.8276 0.4572
vn -0.0070 0.8739 0.4861
vn -0.0910 0.8285 0.5525
vn 0.0522 0.9864 0.1558
vn 0.1481 0.9725 0.1797
vn 0.0665 0.9605 0.2703
vn 0.0839 0.9237 0.3737
vn 0.2770 0.8569 0.4347
vn 0.5073 0.7526 0.4197
vn 0.5677 0.7208 0.3976
vn 0.3187 0.8094 0.4932
vn -0.1219 0.7937 0.5960
vn -0.1353 0.7528 0.6442
vn 0.0581 0.9966 0.0581
vn 0.1329 0.9902 0.0437
vn 0.0019 0.9995 0.0329
vn 0.0305 0.9988 0.0372
vn 0.2571 0.9651 0.0498
vn 0.5240 0.8463 0.0955
vn 0.5796 0.7939 0.1837
vn 0.2109 0.9097 0.3577
vn -0.2422 0.8522 0.4638
vn -0.1898 0.8354 0.5158
vn 0.0581 0.9966 -0.0581
vn 0.1486 0.9871 -0.0596
vn 0.0752 0.9876 -0.1379
vn 0.0559 0.9697 -0.2379
vn 0.2320 0.9397 -0.2511
vn 0.4413 0.8815 -0.1678
vn 0.4936 0.8694 -0.0244
vn 0.0737 0.9890 0.1283
vn -0.3014 0.9396 0.1621
vn -0.2074 0.9710 0.1186
vn 0.0522 0.9864 -0.1558
vn 0.1439 0.9791 -0.1439
vn 0.1740 0.9712 -0.1625
vn 0.1531 0.9547 -0.2553
vn 0.2189 0.9243 -0.3127
vn 0.3241 0.9159 -0.2366
vn 0.3338 0.9409 -0.0573
vn 0.0435 0.9987 0.0253
vn -0.2226 0.9720 -0.0760
vn -0.1396 0.9729 -0.1845
vn 0.0448 0.9737 -0.2232
vn 0.1261 0.9696 -0.2098
vn 0.1872 0.9643 -0.1872
vn 0.2166 0.9618 -0.1672
vn 0.2227 0.9623 -0.1562
vn 0.2335 0.9648 -0.1205
vn 0.1945 0.9794 -0.0533
vn 0.0802 0.9965 -0.0214
vn -0.0802 0.9915 -0.1023
vn -0.0606 0.9746 -0.2156
vt 0.000000 0.000000
vt 0.100000 0.000000
vt 0.100000 0.100000
vt 0.000000 0.100000
vt 0.200000 0.000000
vt 0.200000 0.100000
vt 0.300000 0.000000
vt 0.300000 0.100000
vt 0.200000 0.100000
vt 0.400000 0.000000
vt 0.400000 0.100000
vt 0.500000 0.000000
vt 0.500000 0.100000
vt 0.600000 0.000000
vt 0.600000 0.100000
vt 0.700000 0.000000
vt 0.700000 0.100000
vt 0.800000 0.000000
vt 0.800000 0.100000
vt 0.900000 0.000000
vt 0.900000 0.100000
vt 1.000000 0.000000
vt 1.000000 0.100000
vt 0.100000 0.200000
vt 0.000000 0.200000
vt 0.200000 0.200000
vt 0.300000 0.200000
vt 0.200000 0.200000
vt 0.400000 0.200000
vt 0.500000 0.200000
vt 0.600000 0.200000
vt 0.700000 0.200000
vt 0.800000 0.200000
vt 0.900000 0.200000
vt 1.000000 0.200000
vt 0.000000 0.200000
vt 0.100000 0.200000
vt 0.100000 0.300000
vt 0.000000 0.300000
vt 0.200000 0.200000
vt 0.200000 0.300000
vt 0.300000 0.200000
vt 0.300000 0.300000
vt 0.200000 0.300000
vt 0.400000 0.200000
vt 0.400000 0.300000
vt 0.500000 0.200000
vt 0.500000 0.300000
vt 0.600000 0.200000
vt 0.600000 0.300000
vt 0.700000 0.200000
vt 0.700000 0.300000
vt 0.800000 0.200000
vt 0.800000 0.300000
vt 0.900000 0.200000
vt 0.900000 0.300000
vt 1.000000 0.200000
vt 1.000000 0.300000
vt 0.100000 0.400000
vt 0.000000 0.400000
vt 0.200000 0.400000
vt 0.300000 0.400000
vt 0.200000 0.400000
vt 0.400000 0.400000
vt 0.500000 0.400000
vt 0.600000 0.400000
vt 0.700000 0.400000
vt 0.800000 0.400000
vt 0.900000 0.400000
vt 1.000000 0.400000
vt 0.100000 0.500000
vt 0.000000 0.500000
vt 0.200000 0.500000
vt 0.300000 0.500000
vt 0.200000 0.500000
vt 0.400000 0.500000
vt 0.500000 0.500000
vt 0.600000 0.500000
vt 0.700000 0.500000
vt 0.800000 0.500000
vt 0.900000 0.500000
vt 1.000000 0.500000
vt 0.100000 0.600000
vt 0.000000 0.600000
vt 0.200000 0.600000
vt 0.300000 0.600000
vt 0.200000 0.600000
vt 0.400000 0.600000
vt 0.500000 0.600000
vt 0.600000 0.600000
vt 0.700000 0.600000
vt 0.800000 0.600000
vt 0.900000 0.600000
vt 1.000000 0.600000
vt 0.100000 0.700000
vt 0.000000 0.700000
vt 0.200000 0.700000
vt 0.300000 0.700000
vt 0.200000 0.700000
vt 0.400000 0.700000
vt 0.500000 0.700000
vt 0.600000 0.700000
vt 0.700000 0.700000
vt 0.800000 0.700000
vt 0.900000 0.700000
vt 1.000000 0.700000
vt 0.100000 0.800000
vt 0.000000 0.800000
vt 0.200000 0.800000
vt 0.300000 0.800000
vt 0.200000 0.800000
vt 0.400000 0.800000
vt 0.500000 0.800000
vt 0.600000 0.800000
vt 0.700000 0.800000
vt 0.800000 0.800000
vt 0.900000 0.800000
vt 1.000000 0.800000
vt 0.100000 0.900000
vt 0.000000 0.900000
vt 0.200000 0.900000
vt 0.300000 0.900000
vt 0.200000 0.900000
vt 0.400000 0.900000
vt 0.500000 0.900000
vt 0.600000 0.900000
vt 0.700000 0.900000
vt 0.800000 0.900000
vt 0.900000 0.900000
vt 1.000000 0.900000
vt 0.100000 1.000000
vt 0.000000 1.000000
vt 0.200000 1.000000
vt 0.300000 1.000000
vt 0.200000 1.000000
vt 0.400000 1.000000
vt 0.500000 1.000000
vt 0.600000 1.000000
vt 0.700000 1.000000
vt 0.800000 1.000000
vt 0.900000 1.000000
vt 1.000000 1.000000
s 0
f 1/1/1 2/2/1 13/3/1 12/4/1
f 2/2/2 3/5/2 14/6/2 13/3/2
f 3/5/3 4/7/3 15/8/3 14/9/3
f 4/7/4 5/10/4 16/11/4 15/8/4
f 5/10/5 6/12/5 17/13/5 16/11/5
f 6/12/6 7/14/6 18/15/6 17/13/6
f 7/14/7 8/16/7 19/17/7 18/15/7
f 8/16/8 9/18/8 20/19/8 19/17/8
f 9/18/9 10/20/9 21/21/9 20/19/9
f 10/20/10 11/22/10 22/23/10 21/21/10
f 12/4/11 13/3/11 24/24/11 23/25/11
f 13/3/12 14/6/12 25/26/12 24/24/12
f 14/6/13 15/8/13 26/27/13 25/28/13
f 15/8/14 16/11/14 27/29/14 26/27/14
f 16/11/15 17/13/15 28/30/15 27/29/15
f 17/13/16 18/15/16 29/31/16 28/30/16
f 18/15/17 19/17/17 30/32/17 29/31/17
f 19/17/18 20/19/18 31/33/18 30/32/18
f 20/19/19 21/21/19 32/34/19 31/33/19
f 21/21/20 22/23/20 33/35/20 32/34/20
f 23/36/21 24/37/21 35/38/21 34/39/21
f 24/37/22 25/40/22 36/41/22 35/38/22
f 25/40/23 26/42/23 37/43/23 36/44/23
f 26/42/24 27/45/24 38/46/24 37/43/24
f 27/45/25 28/47/25 39/48/25 38/46/25
f 28/47/26 29/49/26 40/50/26 39/48/26
f 29/49/27 30/51/27 41/52/27 40/50/27
f 30/51/28 31/53/28 42/54/28 41/52/28
f 31/53/29 32/55/29 43/56/29 42/54/29
f 32/55/30 33/57/30 44/58/30 43/56/30
f 34/39/31 35/38/31 46/59/31 45/60/31
f 35/38/32 36/41/32 47/61/32 46/59/32
f 36/41/33 37/43/33 48/62/33 47/63/33
f 37/43/34 38/46/34 49/64/34 48/62/34
f 38/46/35 39/48/35 50/65/35 49/64/35
f 39/48/36 40/50/36 51/66/36 50/65/36
f 40/50/37 41/52/37 52/67/37 51/66/37
f 41/52/38 42/54/38 53/68/38 52/67/38
f 42/54/39 43/56/39 54/69/39 53/68/39
f 43/56/40 44/58/40 55/70/40 54/69/40
f 45/60/41 46/59/41 57/71/41 56/72/41
f 46/59/42 47/61/42 58/73/42 57/71/42
f 47/61/43 48/62/43 59/74/43 58/75/43
f 48/62/44 49/64/44 60/76/44 59/74/44
f 49/64/45 50/65/45 61/77/45 60/76/45
f 50/65/46 51/66/46 62/78/46 61/77/46
f 51/66/47 52/67/47 63/79/47 62/78/47
f 52/67/48 53/68/48 64/80/48 63/79/48
f 53/68/49 54/69/49 65/81/49 64/80/49
f 54/69/50 55/70/50 66/82/50 65/81/50
f 56/72/51 57/71/51 68/83/51 67/84/51
f 57/71/52 58/73/52 69/85/52 68/83/52
f 58/73/53 59/74/53 70/86/53 69/87/53
f 59/74/54 60/76/54 71/88/54 70/86/54
f 60/76/55 61/77/55 72/89/55 71/88/55
f 61/77/56 62/78/56 73/90/56 72/89/56
f 62/78/57 63/79/57 74/91/57 73/90/57
f 63/79/58 64/80/58 75/92/58 74/91/58
f 64/80/59 65/81/59 76/93/59 75/92/59
f 65/81/60 66/82/60 77/94/60 76/93/60
f 67/84/61 68/83/61 79/95/61 78/96/61
f 68/83/62 69/85/62 80/97/62 79/95/62
f 69/85/63 70/86/63 81/98/63 80/99/63
f 70/86/64 71/88/64 82/100/64 81/98/64
f 71/88/65 72/89/65 83/101/65 82/100/65
f 72/89/66 73/90/66 84/102/66 83/101/66
f 73/90/67 74/91/67 85/103/67 84/102/67
f 74/91/68 75/92/68 86/104/68 85/103/68
f 75/92/69 76/93/69 87/105/69 86/104/69
f 76/93/70 77/94/70 88/106/70 87/105/70
f 78/96/71 79/95/71 90/107/71 89/108/71
f 79/95/72 80/97/72 91/109/72 90/107/72
f 80/97/73 81/98/73 92/110/73 91/111/73
f 81/98/74 82/100/74 93/112/74 92/110/74
f 82/100/75 83/101/75 94/113/75 93/112/75
f 83/101/76 84/102/76 95/114/76 94/113/76
f 84/102/77 85/103/77 96/115/77 95/114/77
f 85/103/78 86/104/78 97/116/78 96/115/78
f 86/104/79 87/105/79 98/117/79 97/116/79
f 87/105/80 88/106/80 99/118/80 98/117/80
f 89/108/81 90/107/81 101/119/81 100/120/81
f 90/107/82 91/109/82 102/121/82 101/119/82
f 91/109/83 92/110/83 103/122/83 102/123/83
f 92/110/84 93/112/84 104/124/84 103/122/84
f 93/112/85 94/113/85 105/125/85 104/124/85
f 94/113/86 95/114/86 106/126/86 105/125/86
f 95/114/87 96/115/87 107/127/87 106/126/87
f 96/115/88 97/116/88 108/128/88 107/127/88
f 97/116/89 98/117/89 109/129/89 108/128/89
f 98/117/90 99/118/90 110/130/90 109/129/90
f 100/120/91 101/119/91 112/131/91 111/132/91
f 101/119/92 102/121/92 113/133/92 112/131/92
f 102/121/93 103/122/93 114/134/93 113/135/93
f 103/122/94 104/124/94 115/136/94 114/134/94
f 104/124/95 105/125/95 116/137/95 115/136/95
f 105/125/96 106/126/96 117/138/96 116/137/96
f 106/126/97 107/127/97 118/139/97 117/138/97
f 107/127/98 108/128/98 119/140/98 118/139/98
f 108/128/99 109/129/99 120/141/99 119/140/99
f 109/129/100 110/130/100 121/142/100 120/141/100
