# Blender 4.2.3 LTS
# www.blender.org
mtllib train_compartment.mtl
o Cube
v 1.249996 0.000000 1.500000
v 1.249996 0.000000 -1.500000
v 1.444082 2.181145 -0.891822
v 1.444082 2.181145 0.891822
v 1.689036 1.116265 -0.891822
v 1.689036 1.116265 0.891822
v 1.249996 2.500000 -1.500000
v 1.249996 2.500000 1.500000
v 1.700000 0.800000 -1.500000
v 1.700000 0.800000 1.500000
v 1.400000 -0.100000 1.500000
v 1.400000 -0.100000 -1.500000
v 1.606054 2.262985 -0.891822
v 1.606054 2.262985 0.891822
v 1.874427 1.096292 -0.891822
v 1.874427 1.096292 0.891822
v 1.400000 2.600000 -1.500000
v 1.400000 2.600000 1.500000
v 2.000000 0.750000 -1.500000
v 2.000000 0.750000 1.500000
v 1.249996 0.800000 1.500000
v 1.249996 0.800000 -1.500000
v -1.249993 0.000000 1.500000
v -1.249993 0.000000 -1.500000
v -1.444079 2.181145 -0.891822
v -1.444079 2.181145 0.891822
v -1.689033 1.116265 -0.891822
v -1.689033 1.116265 0.891822
v -1.249993 2.500000 -1.500000
v -1.249993 2.500000 1.500000
v -1.699997 0.800000 -1.500000
v -1.699997 0.800000 1.500000
v -1.399997 -0.100000 1.500000
v -1.399997 -0.100000 -1.500000
v -1.606050 2.262985 -0.891822
v -1.606050 2.262985 0.891822
v -1.874424 1.096292 -0.891822
v -1.874424 1.096292 0.891822
v -1.399997 2.600000 -1.500000
v -1.399997 2.600000 1.500000
v -1.999997 0.750000 -1.500000
v -1.999997 0.750000 1.500000
v -1.249993 0.800000 1.500000
v -1.249993 0.800000 -1.500000
vn -0.8542 -0.5199 -0.0000
vn -0.9597 -0.2412 0.1440
vn -0.9597 -0.2412 -0.1440
vn -0.9994 -0.0346 -0.0000
vn 0.8170 -0.5767 -0.0000
vn 0.8532 0.5216 -0.0000
vn 0.9589 0.2760 -0.0656
vn 0.9589 0.2760 0.0656
vn 0.9401 0.3409 -0.0000
vn -0.0000 -0.0000 -1.0000
vn 0.1071 0.9942 -0.0000
vn -0.0000 -0.0000 1.0000
vn 0.4510 -0.8925 -0.0000
vn -1.0000 -0.0000 -0.0000
vn -0.0000 1.0000 -0.0000
vn 0.8542 -0.5199 -0.0000
vn 0.9597 -0.2412 0.1440
vn 0.9597 -0.2412 -0.1440
vn 0.9994 -0.0346 -0.0000
vn -0.8170 -0.5767 -0.0000
vn -0.8532 0.5216 -0.0000
vn -0.9589 0.2760 -0.0656
vn -0.9589 0.2760 0.0656
vn -0.9401 0.3409 -0.0000
vn -0.1071 0.9942 -0.0000
vn -0.4510 -0.8925 -0.0000
vn 1.0000 -0.0000 -0.0000
vn -0.0000 -1.0000 -0.0000
vt 0.602319 0.526740
vt 0.602319 0.723259
vt 0.625000 0.750000
vt 0.625000 0.500000
vt 0.522681 0.526741
vt 0.500000 0.500000
vt 0.522681 0.723260
vt 0.500000 0.750000
vt 0.375000 0.500000
vt 0.375000 0.750000
s 0
f 3/1/1 4/2/1 8/3/1 7/4/1
f 5/5/2 3/1/2 7/4/2 9/6/2
f 4/2/3 6/7/3 10/8/3 8/3/3
f 6/7/4 5/5/4 9/6/4 10/8/4
f 12/9/5 19/6/5 20/8/5 11/10/5
f 13/1/6 17/4/6 18/3/6 14/2/6
f 15/5/7 19/6/7 17/4/7 13/1/7
f 14/2/8 18/3/8 20/8/8 16/7/8
f 16/7/9 20/8/9 19/6/9 15/5/9
f 4/2/10 14/2/10 16/7/10 6/7/10
f 6/7/11 16/7/11 15/5/11 5/5/11
f 5/5/12 15/5/12 13/1/12 3/1/12
f 3/1/13 13/1/13 14/2/13 4/2/13
f 1/10/14 21/10/14 22/9/14 2/9/14
f 10/8/15 9/6/15 22/9/15 21/10/15
f 25/1/16 29/4/16 30/3/16 26/2/16
f 27/5/17 31/6/17 29/4/17 25/1/17
f 26/2/18 30/3/18 32/8/18 28/7/18
f 28/7/19 32/8/19 31/6/19 27/5/19
f 34/9/20 33/10/20 42/8/20 41/6/20
f 35/1/21 36/2/21 40/3/21 39/4/21
f 37/5/22 35/1/22 39/4/22 41/6/22
f 36/2/23 38/7/23 42/8/23 40/3/23
f 38/7/24 37/5/24 41/6/24 42/8/24
f 26/2/10 28/7/10 38/7/10 36/2/10
f 28/7/25 27/5/25 37/5/25 38/7/25
f 27/5/12 25/1/12 35/1/12 37/5/12
f 25/1/26 26/2/26 36/2/26 35/1/26
f 23/10/27 24/9/27 44/9/27 43/10/27
f 32/8/15 43/10/15 44/9/15 31/6/15
f 2/9/15 24/9/15 23/10/15 1/10/15
f 11/10/28 33/10/28 34/9/28 12/9/28
f 8/3/28 30/3/28 29/4/28 7/4/28
f 17/4/15 39/4/15 40/3/15 18/3/15
